<svg xmlns="http://www.w3.org/2000/svg" width="512" height="512" version="1.2">
  <style>
    .a {
      fill: #3c9
    }

    .b {
      fill: #fff
    }
  </style>
  <path
    d="M229.8 7.5c16.1-10 36.3-10 52.4 0l85 52.7q1.3.9 2.7 1.6l88.2 47.3c16.7 8.9 26.8 26.4 26.2 45.3l-3.2 100v3.2l3.2 100c.6 18.9-9.5 36.4-26.2 45.3l-88.2 47.3q-1.4.7-2.7 1.6l-85 52.7c-16.1 10-36.3 10-52.4 0l-85-52.7q-1.3-.9-2.7-1.6l-88.2-47.3c-16.7-8.9-26.8-26.4-26.2-45.3l3.2-100v-3.2l-3.2-100c-.6-18.9 9.5-36.4 26.2-45.3l88.2-47.3q1.4-.7 2.7-1.6z"
    class="a" />
  <path d="M72 213.2h368.9v86.5H72z" class="b" />
  <path d="M299.7 72v368.9h-86.5V72z" class="b" />
</svg>
